<svg width="186" height="34" viewBox="0 0 186 34" fill="none" xmlns="http://www.w3.org/2000/svg">
<rect x="10" width="176" height="34" rx="10" fill="#0D423B"/>
<path d="M164.05 16.0381L162.191 17.8482C161.428 18.5905 161 19.5973 161 20.6471C161 21.6968 161.428 22.7036 162.191 23.4459C162.953 24.1883 163.987 24.6053 165.065 24.6053C166.143 24.6053 167.177 24.1883 167.94 23.4459L170.417 21.033C170.876 20.5853 171.219 20.0367 171.416 19.4334C171.613 18.83 171.658 18.1895 171.548 17.5655C171.439 16.9415 171.177 16.3523 170.784 15.8473C170.392 15.3424 169.881 14.9364 169.295 14.6634L168.501 15.4365C168.42 15.5151 168.35 15.6033 168.292 15.699C168.745 15.8259 169.157 16.0658 169.486 16.3949C169.814 16.7241 170.049 17.1311 170.167 17.5757C170.285 18.0204 170.282 18.4873 170.157 18.9303C170.033 19.3732 169.792 19.777 169.459 20.1015L166.983 22.5132C166.475 23.0083 165.785 23.2865 165.066 23.2865C164.347 23.2865 163.657 23.0083 163.149 22.5132C162.64 22.0181 162.354 21.3466 162.354 20.6464C162.354 19.9462 162.64 19.2747 163.149 18.7796L164.223 17.7347C164.071 17.1816 164.013 16.6095 164.05 16.0381Z" fill="white"/>
<path d="M166.585 13.571C166.125 14.0187 165.782 14.5672 165.585 15.1706C165.388 15.7739 165.343 16.4145 165.453 17.0385C165.563 17.6624 165.825 18.2516 166.217 18.7566C166.609 19.2616 167.12 19.6676 167.707 19.9406L168.757 18.9168C168.297 18.7968 167.878 18.5612 167.542 18.2337C167.206 17.9061 166.964 17.4982 166.841 17.0508C166.718 16.6034 166.718 16.1324 166.841 15.6851C166.964 15.2378 167.206 14.8299 167.543 14.5024L170.018 12.0908C170.527 11.5957 171.216 11.3175 171.935 11.3175C172.655 11.3175 173.344 11.5957 173.853 12.0908C174.361 12.5859 174.647 13.2574 174.647 13.9576C174.647 14.6577 174.361 15.3293 173.853 15.8244L172.778 16.8692C172.93 17.4233 172.988 17.9972 172.952 18.5672L174.811 16.7571C175.573 16.0148 176.001 15.008 176.001 13.9582C176.001 12.9084 175.573 11.9016 174.811 11.1593C174.048 10.417 173.014 10 171.936 10C170.858 10 169.824 10.417 169.062 11.1593L166.585 13.571Z" fill="white"/>
<path d="M21.7614 24V9.45455H26.6761C27.8172 9.45455 28.75 9.66051 29.4744 10.0724C30.2036 10.4796 30.7434 11.0312 31.0938 11.7273C31.4441 12.4233 31.6193 13.1998 31.6193 14.0568C31.6193 14.9138 31.4441 15.6927 31.0938 16.3935C30.7481 17.0942 30.2131 17.6529 29.4886 18.0696C28.7642 18.4815 27.8362 18.6875 26.7045 18.6875H23.1818V17.125H26.6477C27.429 17.125 28.0563 16.9901 28.5298 16.7202C29.0033 16.4503 29.3466 16.0857 29.5597 15.6264C29.7775 15.1624 29.8864 14.6392 29.8864 14.0568C29.8864 13.4744 29.7775 12.9536 29.5597 12.4943C29.3466 12.035 29.0009 11.6752 28.5227 11.4148C28.0445 11.1496 27.41 11.017 26.6193 11.017H23.5227V24H21.7614ZM34.2294 24V13.0909H35.8487V14.7386H35.9624C36.1612 14.1989 36.5211 13.7609 37.0419 13.4247C37.5627 13.0885 38.1499 12.9205 38.8033 12.9205C38.9264 12.9205 39.0803 12.9228 39.2649 12.9276C39.4496 12.9323 39.5893 12.9394 39.6839 12.9489V14.6534C39.6271 14.6392 39.4969 14.6179 39.2933 14.5895C39.0945 14.5563 38.8838 14.5398 38.6612 14.5398C38.1309 14.5398 37.6574 14.651 37.2408 14.8736C36.8288 15.0914 36.5021 15.3944 36.2607 15.7827C36.0239 16.1662 35.9055 16.6042 35.9055 17.0966V24H34.2294ZM45.7706 24.2273C44.7857 24.2273 43.9216 23.9929 43.1783 23.5241C42.4396 23.0554 41.862 22.3996 41.4453 21.5568C41.0334 20.714 40.8274 19.7292 40.8274 18.6023C40.8274 17.4659 41.0334 16.474 41.4453 15.6264C41.862 14.7789 42.4396 14.1207 43.1783 13.652C43.9216 13.1832 44.7857 12.9489 45.7706 12.9489C46.7554 12.9489 47.6172 13.1832 48.3558 13.652C49.0992 14.1207 49.6768 14.7789 50.0888 15.6264C50.5054 16.474 50.7138 17.4659 50.7138 18.6023C50.7138 19.7292 50.5054 20.714 50.0888 21.5568C49.6768 22.3996 49.0992 23.0554 48.3558 23.5241C47.6172 23.9929 46.7554 24.2273 45.7706 24.2273ZM45.7706 22.7216C46.5187 22.7216 47.1342 22.5298 47.6172 22.1463C48.1001 21.7628 48.4576 21.2585 48.6896 20.6335C48.9216 20.0085 49.0376 19.3314 49.0376 18.6023C49.0376 17.8731 48.9216 17.1937 48.6896 16.5639C48.4576 15.9342 48.1001 15.4252 47.6172 15.0369C47.1342 14.6487 46.5187 14.4545 45.7706 14.4545C45.0225 14.4545 44.407 14.6487 43.924 15.0369C43.4411 15.4252 43.0836 15.9342 42.8516 16.5639C42.6196 17.1937 42.5036 17.8731 42.5036 18.6023C42.5036 19.3314 42.6196 20.0085 42.8516 20.6335C43.0836 21.2585 43.4411 21.7628 43.924 22.1463C44.407 22.5298 45.0225 22.7216 45.7706 22.7216ZM53.2724 13.0909H54.9485V24.7955C54.9485 25.4678 54.8325 26.0502 54.6005 26.5426C54.3732 27.035 54.0276 27.4162 53.5636 27.6861C53.1043 27.956 52.5243 28.0909 51.8235 28.0909C51.7667 28.0909 51.7099 28.0909 51.6531 28.0909C51.5962 28.0909 51.5394 28.0909 51.4826 28.0909V26.5284C51.5394 26.5284 51.5915 26.5284 51.6388 26.5284C51.6862 26.5284 51.7383 26.5284 51.7951 26.5284C52.3065 26.5284 52.6805 26.3769 52.9173 26.0739C53.154 25.7756 53.2724 25.3494 53.2724 24.7955V13.0909ZM54.0962 11.2727C53.7695 11.2727 53.4878 11.1615 53.2511 10.9389C53.0191 10.7164 52.9031 10.4489 52.9031 10.1364C52.9031 9.82386 53.0191 9.55634 53.2511 9.33381C53.4878 9.11127 53.7695 9 54.0962 9C54.4229 9 54.7023 9.11127 54.9343 9.33381C55.171 9.55634 55.2894 9.82386 55.2894 10.1364C55.2894 10.4489 55.171 10.7164 54.9343 10.9389C54.7023 11.1615 54.4229 11.2727 54.0962 11.2727ZM62.5923 24.2273C61.5412 24.2273 60.6345 23.9953 59.8722 23.5312C59.1146 23.0625 58.5298 22.4091 58.1179 21.571C57.7107 20.7282 57.5071 19.7481 57.5071 18.6307C57.5071 17.5133 57.7107 16.5284 58.1179 15.6761C58.5298 14.8191 59.1027 14.1515 59.8366 13.6733C60.5753 13.1903 61.437 12.9489 62.4219 12.9489C62.9901 12.9489 63.5511 13.0436 64.1051 13.233C64.6591 13.4223 65.1634 13.7301 65.6179 14.1562C66.0724 14.5777 66.4347 15.1364 66.7045 15.8324C66.9744 16.5284 67.1094 17.3854 67.1094 18.4034V19.1136H58.7003V17.6648H65.4048C65.4048 17.0492 65.2817 16.5 65.0355 16.017C64.794 15.5341 64.4484 15.1529 63.9986 14.8736C63.5535 14.5942 63.0279 14.4545 62.4219 14.4545C61.7543 14.4545 61.1766 14.6203 60.6889 14.9517C60.206 15.2784 59.8343 15.7045 59.5739 16.2301C59.3134 16.7557 59.1832 17.3191 59.1832 17.9205V18.8864C59.1832 19.7102 59.3253 20.4086 59.6094 20.9815C59.8982 21.5497 60.2983 21.983 60.8097 22.2812C61.321 22.5748 61.9152 22.7216 62.5923 22.7216C63.0327 22.7216 63.4304 22.66 63.7855 22.5369C64.1454 22.4091 64.4555 22.2197 64.7159 21.9688C64.9763 21.7131 65.1776 21.3958 65.3196 21.017L66.9389 21.4716C66.7685 22.0208 66.482 22.5038 66.0795 22.9205C65.6771 23.3324 65.1799 23.6544 64.5881 23.8864C63.9962 24.1136 63.331 24.2273 62.5923 24.2273ZM74.4034 13.0909V14.5114H68.75V13.0909H74.4034ZM70.3977 10.4773H72.0739V20.875C72.0739 21.3485 72.1425 21.7036 72.2798 21.9403C72.4219 22.1723 72.6018 22.3286 72.8196 22.4091C73.0421 22.4848 73.2765 22.5227 73.5227 22.5227C73.7074 22.5227 73.8589 22.5133 73.9773 22.4943C74.0956 22.4706 74.1903 22.4517 74.2614 22.4375L74.6023 23.9432C74.4886 23.9858 74.33 24.0284 74.1264 24.071C73.9228 24.1184 73.6648 24.142 73.3523 24.142C72.8788 24.142 72.4148 24.0402 71.9602 23.8366C71.5104 23.633 71.1364 23.3229 70.8381 22.9062C70.5445 22.4896 70.3977 21.964 70.3977 21.3295V10.4773ZM81.2393 24.2273C80.2545 24.2273 79.3904 23.9929 78.647 23.5241C77.9084 23.0554 77.3307 22.3996 76.9141 21.5568C76.5021 20.714 76.2962 19.7292 76.2962 18.6023C76.2962 17.4659 76.5021 16.474 76.9141 15.6264C77.3307 14.7789 77.9084 14.1207 78.647 13.652C79.3904 13.1832 80.2545 12.9489 81.2393 12.9489C82.2242 12.9489 83.0859 13.1832 83.8246 13.652C84.5679 14.1207 85.1456 14.7789 85.5575 15.6264C85.9742 16.474 86.1825 17.4659 86.1825 18.6023C86.1825 19.7292 85.9742 20.714 85.5575 21.5568C85.1456 22.3996 84.5679 23.0554 83.8246 23.5241C83.0859 23.9929 82.2242 24.2273 81.2393 24.2273ZM81.2393 22.7216C81.9875 22.7216 82.603 22.5298 83.0859 22.1463C83.5689 21.7628 83.9264 21.2585 84.1584 20.6335C84.3904 20.0085 84.5064 19.3314 84.5064 18.6023C84.5064 17.8731 84.3904 17.1937 84.1584 16.5639C83.9264 15.9342 83.5689 15.4252 83.0859 15.0369C82.603 14.6487 81.9875 14.4545 81.2393 14.4545C80.4912 14.4545 79.8757 14.6487 79.3928 15.0369C78.9098 15.4252 78.5523 15.9342 78.3203 16.5639C78.0883 17.1937 77.9723 17.8731 77.9723 18.6023C77.9723 19.3314 78.0883 20.0085 78.3203 20.6335C78.5523 21.2585 78.9098 21.7628 79.3928 22.1463C79.8757 22.5298 80.4912 22.7216 81.2393 22.7216ZM94.5934 24V9.45455H103.315V11.017H96.3548V15.9318H102.662V17.4943H96.3548V24H94.5934ZM106.104 24V13.0909H107.781V24H106.104ZM106.957 11.2727C106.63 11.2727 106.348 11.1615 106.112 10.9389C105.879 10.7164 105.763 10.4489 105.763 10.1364C105.763 9.82386 105.879 9.55634 106.112 9.33381C106.348 9.11127 106.63 9 106.957 9C107.283 9 107.563 9.11127 107.795 9.33381C108.031 9.55634 108.15 9.82386 108.15 10.1364C108.15 10.4489 108.031 10.7164 107.795 10.9389C107.563 11.1615 107.283 11.2727 106.957 11.2727ZM115.254 28.3182C114.444 28.3182 113.748 28.214 113.166 28.0057C112.583 27.8021 112.098 27.5322 111.71 27.196C111.326 26.8646 111.021 26.5095 110.794 26.1307L112.129 25.1932C112.28 25.392 112.472 25.6193 112.704 25.875C112.936 26.1354 113.253 26.3603 113.656 26.5497C114.063 26.7438 114.596 26.8409 115.254 26.8409C116.135 26.8409 116.861 26.6278 117.434 26.2017C118.007 25.7756 118.294 25.108 118.294 24.1989V21.983H118.152C118.029 22.1818 117.853 22.428 117.626 22.7216C117.404 23.0104 117.082 23.2685 116.66 23.4957C116.243 23.7183 115.68 23.8295 114.97 23.8295C114.089 23.8295 113.298 23.6212 112.598 23.2045C111.902 22.7879 111.35 22.1818 110.943 21.3864C110.54 20.5909 110.339 19.625 110.339 18.4886C110.339 17.3712 110.536 16.3982 110.929 15.5696C111.322 14.7363 111.868 14.0923 112.569 13.6378C113.27 13.1785 114.08 12.9489 114.998 12.9489C115.708 12.9489 116.272 13.0672 116.689 13.304C117.11 13.536 117.432 13.8011 117.654 14.0994C117.882 14.393 118.057 14.6345 118.18 14.8239H118.35V13.0909H119.97V24.3125C119.97 25.25 119.757 26.0123 119.331 26.5994C118.909 27.1913 118.341 27.6245 117.626 27.8991C116.916 28.1785 116.125 28.3182 115.254 28.3182ZM115.197 22.3239C115.869 22.3239 116.438 22.17 116.902 21.8622C117.366 21.5545 117.718 21.1117 117.96 20.5341C118.201 19.9564 118.322 19.2652 118.322 18.4602C118.322 17.6742 118.204 16.9806 117.967 16.3793C117.73 15.7779 117.38 15.3068 116.916 14.9659C116.452 14.625 115.879 14.4545 115.197 14.4545C114.487 14.4545 113.895 14.6345 113.422 14.9943C112.953 15.3542 112.6 15.8371 112.363 16.4432C112.131 17.0492 112.015 17.7216 112.015 18.4602C112.015 19.2178 112.134 19.8878 112.37 20.4702C112.612 21.0478 112.967 21.5024 113.436 21.8338C113.909 22.1605 114.496 22.3239 115.197 22.3239ZM123.038 24V13.0909H124.657V14.7955H124.799C125.027 14.2131 125.394 13.7609 125.9 13.4389C126.407 13.1122 127.015 12.9489 127.725 12.9489C128.445 12.9489 129.044 13.1122 129.522 13.4389C130.005 13.7609 130.382 14.2131 130.652 14.7955H130.765C131.045 14.232 131.464 13.7846 132.022 13.4531C132.581 13.117 133.251 12.9489 134.032 12.9489C135.008 12.9489 135.806 13.2543 136.426 13.8651C137.046 14.4711 137.356 15.4157 137.356 16.6989V24H135.68V16.6989C135.68 15.8939 135.46 15.3187 135.02 14.973C134.579 14.6274 134.061 14.4545 133.464 14.4545C132.697 14.4545 132.103 14.6866 131.681 15.1506C131.26 15.6098 131.049 16.1922 131.049 16.8977V24H129.345V16.5284C129.345 15.9081 129.144 15.4086 128.741 15.0298C128.339 14.6463 127.82 14.4545 127.186 14.4545C126.75 14.4545 126.343 14.5705 125.964 14.8026C125.59 15.0346 125.287 15.3565 125.055 15.7685C124.828 16.1757 124.714 16.6468 124.714 17.1818V24H123.038ZM143.631 24.2557C142.94 24.2557 142.312 24.1255 141.749 23.8651C141.185 23.5999 140.738 23.2188 140.407 22.7216C140.075 22.2197 139.909 21.6136 139.909 20.9034C139.909 20.2784 140.033 19.7718 140.279 19.3835C140.525 18.9905 140.854 18.6828 141.266 18.4602C141.678 18.2377 142.132 18.072 142.63 17.9631C143.132 17.8494 143.636 17.7595 144.142 17.6932C144.805 17.608 145.343 17.544 145.755 17.5014C146.171 17.4541 146.474 17.3759 146.664 17.267C146.858 17.1581 146.955 16.9687 146.955 16.6989V16.642C146.955 15.9413 146.763 15.3968 146.38 15.0085C146.001 14.6203 145.426 14.4261 144.654 14.4261C143.854 14.4261 143.226 14.6013 142.772 14.9517C142.317 15.3021 141.998 15.6761 141.813 16.0739L140.222 15.5057C140.506 14.8428 140.885 14.3267 141.358 13.9574C141.837 13.5833 142.357 13.3229 142.921 13.1761C143.489 13.0246 144.048 12.9489 144.597 12.9489C144.947 12.9489 145.35 12.9915 145.804 13.0767C146.264 13.1572 146.706 13.3253 147.132 13.581C147.563 13.8366 147.921 14.2225 148.205 14.7386C148.489 15.2547 148.631 15.946 148.631 16.8125V24H146.955V22.5227H146.87C146.756 22.7595 146.567 23.0128 146.301 23.2827C146.036 23.5526 145.684 23.7822 145.243 23.9716C144.803 24.161 144.266 24.2557 143.631 24.2557ZM143.887 22.75C144.55 22.75 145.108 22.6198 145.563 22.3594C146.022 22.099 146.368 21.7628 146.6 21.3509C146.837 20.9389 146.955 20.5057 146.955 20.0511V18.517C146.884 18.6023 146.728 18.6804 146.486 18.7514C146.249 18.8177 145.975 18.8769 145.662 18.929C145.355 18.9763 145.054 19.0189 144.76 19.0568C144.471 19.09 144.237 19.1184 144.057 19.142C143.622 19.1989 143.214 19.2912 142.836 19.419C142.462 19.5421 142.158 19.7292 141.926 19.9801C141.699 20.2263 141.586 20.5625 141.586 20.9886C141.586 21.571 141.801 22.0114 142.232 22.3097C142.667 22.6032 143.219 22.75 143.887 22.75Z" fill="white"/>
</svg>
